<?xml version="1.0" encoding="utf-8"?>
<!-- Generator: Adobe Illustrator 23.0.1, SVG Export Plug-In . SVG Version: 6.00 Build 0)  -->
<svg version="1.1" xmlns="http://www.w3.org/2000/svg" xmlns:xlink="http://www.w3.org/1999/xlink" x="0px" y="0px"
	 viewBox="0 0 500.1 500" style="enable-background:new 0 0 500.1 500;" xml:space="preserve">
<style type="text/css">
	.st0{display:none;}
	.st1{display:inline;fill:#263958;}
	.st2{display:inline;fill:#FFFFFF;stroke:#000000;stroke-width:2.6035;stroke-miterlimit:10;}
	.st3{display:inline;fill:none;stroke:#000000;stroke-width:2.6035;stroke-miterlimit:10;}
	.st4{display:inline;fill:#DC3545;}
	.st5{display:inline;}
	.st6{fill:#263958;}
	.st7{display:inline;fill:#FFFFFF;stroke:#000000;stroke-width:2.7121;stroke-miterlimit:10;}
	.st8{display:inline;fill:#DC3545;stroke:#000000;stroke-width:2.8051;stroke-miterlimit:10;}
	.st9{display:inline;fill:none;stroke:#000000;stroke-width:2.6591;stroke-miterlimit:10;}
	.st10{fill:#FFFFFF;stroke:#000000;stroke-width:2.4199;stroke-miterlimit:10;}
	.st11{fill:none;stroke:#000000;stroke-width:2.4199;stroke-miterlimit:10;}
	.st12{fill:#DC3545;}
	.st13{fill:#263958;stroke:#000000;stroke-width:2.4199;stroke-miterlimit:10;}
</style>
<g id="Layer_1" class="st0">
	<path class="st1" d="M268.2,334.5l68.6,67.2c0,0,7.8-90.6-39.1-106.2L268.2,334.5z"/>
	<path class="st1" d="M44.7,182.2l79.7,44.5l45.3-34.4C169.6,192.4,77.5,136.1,44.7,182.2z"/>
	<path class="st2" d="M408.6,9.6c0,0,37.5,196.8-139,345.2c0,0-110.9-54.7-145.3-128.1C124.3,226.7,254,9.6,408.6,9.6z"/>
	<line class="st3" x1="377.4" y1="39.3" x2="218.1" y2="265.8"/>
	<path class="st1" d="M231.6,296.8l3.6-1.4c0,0,32.9,75-25,106.2c0,0,9.8-50.8,6.1-79.8C215,311,221.4,300.7,231.6,296.8z"/>
	<path class="st1" d="M178.8,247.2l-0.8-4.1c0,0-75.2-2.1-69.2,68c0,0,34.2-30.3,58.5-38.5C176.4,269.5,181.1,259,178.8,247.2z"/>
	<path class="st4" d="M169.6,323.6c0,0-62.5,0-81.2,56.2l28.1-7.8c0,0-43.4,66.6-51.5,117.2c0,0,78.9-48.5,85.9-96.9v45.3
		C150.9,437.6,193.1,382.9,169.6,323.6z"/>
	<polygon class="st4" points="364.9,182.2 347.9,213.8 353.2,217.9 370.2,189.8 	"/>
	<polygon class="st4" points="250.4,107.8 226.6,134.6 220.9,131.1 241.5,105.4 	"/>
	<polygon class="st4" points="384.4,126.9 377.4,155 383.4,155.8 391.4,130.2 	"/>
	<polygon class="st4" points="300.3,63.9 279,83.4 275.3,78.6 294.1,59.3 	"/>
</g>
<g id="Layer_2" class="st0">
	<g class="st5">
		<path class="st6" d="M127.2,315.5c6.1,2,11.9,4.6,17.6,7.5c5.7,2.9,11.3,6.2,16.6,9.9c10.7,7.3,20.4,16.2,28.5,26.9
			c1.1,1.3,1.9,2.7,2.8,4.1l2.6,4c1.6,2.4,3.4,4.8,5.2,7.2c3.8,4.7,7.8,9.2,12.2,13.2c4.4,4,9,7.8,13.9,10.9
			c4.9,3.2,10.1,5.8,15.5,7.7c10.8,3.9,22.4,5,33.8,2.8c2.9-0.4,5.7-1.2,8.5-1.9c1.4-0.4,2.8-1,4.2-1.4l2.1-0.7l2.1-0.9l4.1-1.7l4-2
			c1.3-0.7,2.7-1.3,4.1-2.1l4.2-2.2c11.3-5.8,22.7-11.4,34.2-16.7c5.8-2.6,11.6-5.2,17.6-7.5c3-1.2,5.9-2.3,8.9-3.4l4.5-1.5
			c1.5-0.5,3.1-0.9,4.6-1.3c-1.4,0.8-2.8,1.5-4.2,2.3l-4.1,2.4c-2.7,1.6-5.4,3.2-8.1,4.9l-16.1,10l-32.1,20l-4,2.5
			c-1.3,0.8-2.7,1.7-4.2,2.5c-1.4,0.8-2.9,1.7-4.3,2.5l-4.5,2.2l-2.3,1.1l-2.3,0.9c-1.6,0.6-3.1,1.3-4.7,1.8c-3.2,1-6.5,2.1-9.9,2.7
			l-2.5,0.5c-0.8,0.2-1.7,0.2-2.6,0.4l-2.6,0.3c-0.9,0.1-1.7,0.2-2.6,0.3l-5.2,0.2l-5.2-0.2c-6.9-0.5-13.8-2-20.3-4.3
			c-6.5-2.4-12.6-5.5-18.2-9.3c-5.6-3.8-10.8-8.1-15.5-12.9c-4.7-4.7-9-9.8-12.8-15.3c-1.9-2.7-3.7-5.5-5.4-8.5l-2.2-4.1
			c-0.7-1.3-1.4-2.7-2.3-3.9c-6.4-10.1-14.6-19.4-23.8-27.6C148.1,329.8,138,322.3,127.2,315.5z"/>
	</g>
	<g class="st5">
		<path class="st6" d="M464.2,156.4c-1.5,2.3-3.1,4.6-4.9,6.7c-1.9,2.1-3.9,4-6.1,5.8c-4.4,3.5-9.5,6.2-14.9,8.1
			c-5.4,1.9-11.1,2.9-16.8,3.3c-5.7,0.4-11.4,0.2-17.1-0.4c-11.3-1.3-22.4-4.1-33-7.8c-5.3-1.9-10.6-4-15.7-6.2
			c-2.6-1.1-5.2-2.3-7.7-3.6c-2.6-1.3-5-2.5-7.6-4l-0.1,0l-0.4-0.3c-5.3-3.8-10.7-7.5-16.3-10.8c-2.7-1.7-5.6-3.3-8.4-4.9
			c-1.4-0.8-2.9-1.5-4.3-2.3l-2.1-1.1l-2.2-1c-5.8-2.8-11.7-5.3-17.7-7.3c-6-2-12.1-3.6-18.3-4.5c-12.3-1.9-24.8-1.3-36.4,2.5
			c-5.8,1.8-11.3,4.5-16.5,7.8c-1.3,0.8-2.5,1.7-3.8,2.6c-1.2,1-2.5,1.8-3.6,2.8c-1.2,1-2.4,2-3.5,3c-1.2,1-2.2,2.1-3.3,3.2
			c-1.1,1.1-2.1,2.2-3.2,3.4l-3.5,3.8c-1.1,1.3-2.4,2.5-3.6,3.7c-1.2,1.2-2.4,2.5-3.7,3.6c-4.9,4.8-10.1,9.2-15.4,13.6
			c-10.6,8.6-21.8,16.3-33.5,23.3c-11.6,7-23.6,13.3-35.8,18.9c-6.1,2.8-12.3,5.5-18.5,8c-6.3,2.5-12.5,4.9-19,6.9l0.4-0.2
			c-0.5,0.3-0.8,0.3-1.1,0.5c-0.4,0.1-0.7,0.2-1,0.3c-0.7,0.2-1.3,0.3-2,0.4c-1.3,0.2-2.7,0.3-4,0.2l-1,0l-1-0.1
			c-0.6-0.1-1.3-0.2-1.9-0.3l-1.9-0.5c-0.6-0.2-1.2-0.3-1.8-0.6c-2.4-0.9-4.6-2-6.7-3.4l-3-2.2l-2.7-2.5c-0.9-0.8-1.7-1.7-2.5-2.6
			c-0.8-0.9-1.6-1.8-2.3-2.7l-2.1-2.9c-0.7-1-1.4-1.9-2-2.9l-1.8-3c-0.6-1-1.2-2-1.7-3l-3.1-6.3l3.9,5.8c0.6,1,1.4,1.9,2.1,2.8
			l2.1,2.7c0.7,0.9,1.5,1.7,2.3,2.6l2.3,2.5c0.8,0.8,1.7,1.5,2.5,2.3c0.8,0.8,1.6,1.6,2.6,2.2l2.7,2l2.9,1.7c1.9,1,3.9,1.9,6,2.4
			c0.5,0.2,1,0.3,1.5,0.3l1.5,0.3c0.5,0,1,0,1.5,0.1l0.8,0l0.8-0.1c1,0,2-0.2,2.9-0.4c0.5-0.2,0.9-0.2,1.4-0.4
			c0.2-0.1,0.4-0.2,0.6-0.3c0.2-0.1,0.4-0.2,0.4-0.2l0,0l0.4-0.2c12-5.2,24-11.1,35.6-17.3c11.6-6.3,23-13,33.9-20.3
			c5.4-3.7,10.9-7.4,16.1-11.3c5.2-3.9,10.4-8,15.3-12.2c4.9-4.3,9.8-8.6,14.3-13.2c1.2-1.1,2.3-2.3,3.4-3.5
			c1.1-1.2,2.3-2.3,3.3-3.5l3.2-3.6c1.2-1.3,2.3-2.7,3.6-3.9c9.8-10.4,22.3-18.6,36.1-23.1c13.9-4.4,28.7-5.1,42.7-2.6
			c14,2.4,27.2,7.4,39.5,13.8l2.3,1.2l2.2,1.3c1.5,0.9,3,1.7,4.5,2.6c2.9,1.8,5.9,3.6,8.7,5.5c5.7,3.7,11.2,7.9,16.5,12l-0.5-0.3
			c2.1,1.3,4.5,2.7,6.9,4c2.4,1.3,4.7,2.6,7.1,3.8c4.8,2.5,9.7,4.7,14.7,6.8c5,2.1,10,4,15.2,5.6c5.1,1.6,10.3,3,15.6,4
			c10.5,2,21.4,2.6,31.8,0.1C447.6,170.9,457.2,165,464.2,156.4z"/>
	</g>
	<g class="st5">
		<path class="st6" d="M40.9,178.3c3.6,4.1,7.3,7.9,11.2,11.2c3.9,3.4,7.9,6.4,12.1,8.8c8.4,5,17.4,7.5,26.6,7.6
			c4.6,0.1,9.3-0.6,14.1-1.5c4.8-0.9,9.5-2.5,14.2-4.1c9.5-3.4,18.9-8.2,29-12.6c-1.6,2.2-3.4,4.3-5.2,6.4c-1.8,2-3.8,3.9-5.8,5.8
			c-2,1.9-4.2,3.6-6.4,5.3c-1.1,0.9-2.3,1.6-3.4,2.4c-1.2,0.8-2.3,1.6-3.5,2.3l-3.7,2l-1.9,1c-0.6,0.3-1.3,0.6-2,0.9
			c-1.3,0.6-2.6,1.2-3.9,1.7c-1.4,0.5-2.7,0.9-4.1,1.4c-5.6,1.7-11.4,2.8-17.5,2.6c-6-0.1-12.1-1.2-17.7-3.4l-2.1-0.8l-2-1l-2-1
			l-1.9-1.2c-0.6-0.4-1.3-0.8-1.9-1.2c-0.6-0.4-1.2-0.8-1.8-1.3c-1.2-0.9-2.3-1.8-3.4-2.8c-4.4-3.8-8-8.3-10.9-13.2
			c-1.4-2.4-2.7-4.9-3.7-7.5C42.2,183.7,41.3,181.1,40.9,178.3z"/>
	</g>
	<g class="st5">
		<path class="st6" d="M18.9,195.5c3.6,4.1,7.3,7.9,11.2,11.2c3.9,3.4,7.9,6.4,12.1,8.8c8.4,5,17.4,7.5,26.6,7.6
			c4.6,0.1,9.3-0.6,14.1-1.5c4.8-0.9,9.5-2.5,14.2-4.1c9.5-3.4,18.9-8.2,29-12.6c-1.6,2.2-3.4,4.3-5.2,6.4c-1.8,2-3.8,3.9-5.8,5.8
			c-2,1.9-4.2,3.6-6.4,5.3c-1.1,0.9-2.3,1.6-3.4,2.4c-1.2,0.8-2.3,1.6-3.5,2.3l-3.7,2l-1.9,1c-0.6,0.3-1.3,0.6-2,0.9
			c-1.3,0.6-2.6,1.2-3.9,1.7c-1.4,0.5-2.7,0.9-4.1,1.4c-5.6,1.7-11.4,2.8-17.5,2.6c-6-0.1-12.1-1.2-17.7-3.4l-2.1-0.8l-2-1l-2-1
			l-1.9-1.2c-0.6-0.4-1.3-0.8-1.9-1.2c-0.6-0.4-1.2-0.8-1.8-1.3c-1.2-0.9-2.3-1.8-3.4-2.8c-4.4-3.8-8-8.3-10.9-13.2
			c-1.4-2.4-2.7-4.9-3.7-7.5C20.3,200.9,19.4,198.3,18.9,195.5z"/>
	</g>
	<g class="st5">
		<path class="st6" d="M70.2,167c4.2,4,8.5,7.6,13,10.7c4.5,3.1,9.1,5.7,13.9,7.7c9.5,4,19.4,5.1,29.3,3.4c1.2-0.2,2.5-0.3,3.7-0.7
			c1.2-0.3,2.5-0.5,3.7-0.9l3.7-1.1l0.9-0.3l0.9-0.4l1.8-0.7c2.5-0.8,4.8-2,7.3-3.1c0.6-0.2,1.2-0.5,1.8-0.9l1.8-0.9
			c1.2-0.6,2.4-1.2,3.6-1.8c2.3-1.4,4.8-2.6,7.1-4.1c1.2-0.7,2.3-1.5,3.5-2.2c1.2-0.7,2.4-1.4,3.6-2.2l7.2-4.5
			c2.4-1.6,4.8-3.1,7.3-4.6c-1.5,2.5-3.1,4.9-4.7,7.3c-1.7,2.4-3.6,4.6-5.4,6.9c-1.9,2.2-4,4.3-6,6.4c-1,1.1-2.2,2-3.3,3
			c-1.1,1-2.2,1.9-3.4,2.9c-2.4,1.8-4.8,3.6-7.3,5.2c-2.6,1.6-5.1,3.2-7.9,4.4l-2.1,1l-1,0.5l-1.1,0.4l-4.4,1.6
			c-3,0.9-6,1.8-9.1,2.2c-6.2,1-12.7,1-19-0.3c-6.3-1.3-12.2-3.8-17.4-7.1c-5.2-3.4-9.8-7.5-13.4-12.3c-1.9-2.3-3.5-4.8-4.9-7.4
			C72.3,172.5,71,169.8,70.2,167z"/>
	</g>
	<path class="st7" d="M71.9,260.6c0,0,82-29.4,129.2-83.7c27.3-31.4,77.1-46.6,147.7,6.9c0,0,85.8,52.1,121.1,2.7
		c0,0-101.2,151.2-204.6,148.2C214.7,333.3,135.9,299.1,71.9,260.6z"/>
	<ellipse class="st8" cx="270.8" cy="250" rx="55.1" ry="73.1"/>
	<ellipse class="st7" cx="270" cy="250.4" rx="12.5" ry="48.7"/>
	<path class="st9" d="M265.1,137.2"/>
</g>
<g id="Layer_3">
	<polyline class="st10" points="298.7,365.5 366,252.5 266.5,25.3 132.7,256.8 182.8,355.6 252,406.3 298.7,365.5 	"/>
	<line class="st11" x1="264.9" y1="78.6" x2="239.9" y2="347.4"/>
	<line class="st11" x1="180" y1="263" x2="317.7" y2="261.6"/>
	<line class="st11" x1="277.6" y1="164.5" x2="292.4" y2="233.1"/>
	<line class="st11" x1="236.5" y1="155.4" x2="201.1" y2="229.3"/>
	<line class="st11" x1="304.5" y1="284.6" x2="280.3" y2="319.3"/>
	<line class="st11" x1="191.6" y1="285.8" x2="214.7" y2="320"/>
	<g>
		<path class="st12" d="M187.2,13.3c1.9,2.5,3.7,5.1,5.5,7.7l2.6,3.9l2.5,3.9c0.8,1.3,1.8,2.6,2.7,3.8c0.9,1.3,1.6,2.7,2.1,4.1
			c0.5,1.5,0.9,3,1.1,4.6c0.2,1.6,0.4,3.3,0.1,5.1l-0.6,0.3c-1.6-0.9-2.9-2-4.1-3.2c-1.1-1.2-2.2-2.4-3-3.7
			c-0.9-1.3-1.6-2.7-2.1-4.2c-0.5-1.5-0.9-3-1.5-4.5L191,27l-1.6-4.4c-1-3-2-5.9-2.9-9L187.2,13.3z"/>
	</g>
	<g>
		<path class="st12" d="M136,59.4c3.5,2.2,6.9,4.6,10.2,6.9l5,3.6l4.9,3.7c1.6,1.2,3.4,2.3,5.1,3.5c1.7,1.2,3.2,2.5,4.6,4
			c1.4,1.5,2.6,3.2,3.7,5c1.1,1.8,2.1,3.7,2.8,6l-0.6,0.6c-2.3-0.5-4.3-1.3-6.3-2.2c-1.9-0.9-3.7-2-5.4-3.2
			c-1.7-1.2-3.2-2.5-4.5-4.1c-1.3-1.6-2.6-3.2-4-4.7l-4.2-4.5l-4.1-4.6c-2.7-3.1-5.4-6.2-8-9.4L136,59.4z"/>
	</g>
	<g>
		<path class="st12" d="M108.1,124c5.4-0.1,10.8,0,16.3,0.1l8.1,0.3c2.7,0.1,5.4,0.3,8.1,0.4c2.7,0.2,5.4,0.1,8.1,0.1
			c2.7,0,5.4,0.4,7.9,1.2c2.6,0.8,5.1,1.8,7.6,3c2.5,1.3,5,2.8,7.3,4.9l-0.2,1.2c-2.9,1.3-5.7,2-8.5,2.4c-2.8,0.4-5.5,0.6-8.2,0.5
			c-2.7-0.1-5.3-0.5-7.9-1.3c-2.6-0.8-5.1-1.8-7.7-2.4c-2.6-0.7-5.2-1.4-7.8-2.1l-7.8-2.3c-5.2-1.6-10.3-3.1-15.5-5L108.1,124z"/>
	</g>
	<g>
		<path class="st12" d="M338.1,22.3c-0.8,3-1.7,6-2.6,9l-1.4,4.5l-1.5,4.4c-0.5,1.5-0.9,3-1.3,4.5c-0.4,1.5-1.1,2.9-1.9,4.2
			c-0.8,1.3-1.8,2.6-2.9,3.8c-1.1,1.2-2.4,2.3-3.9,3.3l-0.7-0.3c-0.3-1.8-0.2-3.5-0.1-5.1c0.2-1.6,0.5-3.2,1-4.6
			c0.5-1.5,1.1-2.9,2-4.2c0.9-1.3,1.8-2.6,2.6-3.9l2.4-4l2.5-3.9c1.7-2.6,3.4-5.2,5.2-7.8L338.1,22.3z"/>
	</g>
	<g>
		<path class="st12" d="M390.8,67.6c-2.5,3.3-5.1,6.4-7.7,9.6l-3.9,4.7l-4,4.6c-1.3,1.5-2.6,3.2-3.9,4.8c-1.3,1.6-2.7,3-4.4,4.2
			c-1.6,1.2-3.4,2.3-5.3,3.3c-1.9,1-3.9,1.8-6.2,2.3l-0.6-0.6c0.6-2.3,1.6-4.2,2.7-6c1.1-1.8,2.3-3.5,3.6-5.1
			c1.3-1.6,2.8-2.9,4.4-4.1c1.7-1.2,3.4-2.3,5-3.6l4.8-3.8l4.9-3.7c3.3-2.4,6.6-4.8,10-7.1L390.8,67.6z"/>
	</g>
	<g>
		<path class="st12" d="M420.5,132.2c-5.1,1.9-10.2,3.6-15.3,5.3l-7.7,2.4c-2.6,0.8-5.2,1.5-7.7,2.2c-2.6,0.7-5.1,1.7-7.7,2.6
			c-2.6,0.9-5.2,1.4-7.9,1.5c-2.7,0.1-5.4,0-8.2-0.4c-2.8-0.4-5.6-1-8.5-2.3l-0.2-1.2c2.3-2.2,4.8-3.8,7.2-5.1
			c2.5-1.3,5-2.4,7.6-3.2c2.6-0.8,5.2-1.3,7.9-1.4c2.7-0.1,5.4,0,8.1-0.3c2.7-0.2,5.4-0.4,8-0.6l8.1-0.4c5.4-0.2,10.8-0.4,16.2-0.4
			L420.5,132.2z"/>
	</g>
	<path class="st13" d="M182.8,355.6c0,0,65.1,30.9,129.2,5.4c0,0,47.6,26.7,30.8,60.8c0,0-68.6,51.4-207.2,2.1
		C135.6,424,139.5,361.8,182.8,355.6z"/>
	<g>
		<path d="M175.9,381.5c4.8,0.5,9.5,1.3,14.2,2.1c4.7,0.8,9.3,1.7,13.9,2.6l13.9,2.6c4.6,0.9,9.3,1.6,14,2.7
			c-4.8,1-9.6,1.3-14.5,1.1c-4.8-0.2-9.6-0.7-14.4-1.6c-4.7-0.9-9.4-2.1-14-3.6C184.5,385.8,180.1,384,175.9,381.5z"/>
	</g>
	<g>
		<path d="M160.3,402c4.8,0.5,9.5,1.3,14.2,2.1c4.7,0.8,9.3,1.7,13.9,2.6l13.9,2.6c4.6,0.9,9.3,1.6,14,2.7c-4.8,1-9.6,1.3-14.5,1.1
			c-4.8-0.2-9.6-0.7-14.4-1.6c-4.7-0.9-9.4-2.1-14-3.6C169,406.2,164.5,404.4,160.3,402z"/>
	</g>
</g>
</svg>
